<svg width="14" height="13" viewBox="0 0 14 13" fill="none" xmlns="http://www.w3.org/2000/svg">
<path d="M6.75322 2.23235C6.95005 1.83359 7.51868 1.83359 7.71551 2.23235L8.72159 4.27056C8.79969 4.42876 8.95056 4.53847 9.12514 4.56399L11.3759 4.89296C11.8158 4.95727 11.9911 5.49805 11.6726 5.80827L10.0449 7.39371C9.91831 7.51699 9.86054 7.69466 9.89041 7.8688L10.2745 10.108C10.3496 10.5463 9.8895 10.8806 9.49586 10.6736L7.48411 9.61562C7.32777 9.5334 7.14097 9.5334 6.98462 9.61562L4.97288 10.6736C4.57923 10.8806 4.1191 10.5463 4.19428 10.108L4.57833 7.8688C4.60819 7.69466 4.55042 7.51699 4.42386 7.39371L2.79609 5.80827C2.47759 5.49805 2.65293 4.95727 3.09287 4.89296L5.3436 4.56399C5.51817 4.53847 5.66905 4.42876 5.74714 4.27056L6.75322 2.23235Z" fill="#4E60FF"/>
</svg>
