<svg width="15" height="15" viewBox="0 0 15 15" fill="none" xmlns="http://www.w3.org/2000/svg">
<path fill-rule="evenodd" clip-rule="evenodd" d="M8.58104 3.50951V5.89427H11.9555C12.1283 5.89232 12.2995 5.92796 12.4572 5.99874C12.6149 6.06951 12.7553 6.17373 12.8688 6.30416C12.9822 6.4346 13.0659 6.58813 13.1141 6.75413C13.1623 6.92013 13.1738 7.09462 13.1479 7.26551L12.3251 12.6312C12.282 12.9156 12.1376 13.1747 11.9185 13.361C11.6993 13.5472 11.4203 13.648 11.1327 13.6447L4.85486 13.6447L4.85486 6.08057L6.79247 1.72094C7.26683 1.72094 7.72176 1.90938 8.05718 2.2448C8.39261 2.58022 8.58104 3.03515 8.58104 3.50951ZM3.96057 13.6447L3.96057 7.08665H2.61914C2.3029 7.08665 1.99961 7.21228 1.776 7.43589C1.55238 7.65951 1.42676 7.9628 1.42676 8.27904V12.4524C1.42676 12.7686 1.55238 13.0719 1.776 13.2955C1.99961 13.5191 2.3029 13.6447 2.61914 13.6447L3.96057 13.6447Z" fill="#545563"/>
</svg>
