<svg width="15" height="15" viewBox="0 0 15 15" fill="none" xmlns="http://www.w3.org/2000/svg">
<g clip-path="url(#clip0_2547_644)">
<path d="M10.718 1.72093H12.3098C12.6473 1.71497 12.9751 1.8331 13.2312 2.0529C13.4873 2.27271 13.6537 2.57889 13.699 2.91331V7.08665C13.6537 7.42108 13.4873 7.72725 13.2312 7.94706C12.9751 8.16686 12.6473 8.285 12.3098 8.27903H10.718M6.54468 9.47141V11.8562C6.54468 12.3305 6.73312 12.7855 7.06854 13.1209C7.40396 13.4563 7.85889 13.6447 8.33325 13.6447L10.718 8.27903V1.72093H3.99298C3.70542 1.71768 3.42638 1.81847 3.20726 2.00472C2.98814 2.19097 2.84372 2.45013 2.8006 2.73446L1.97786 8.10017C1.95192 8.27107 1.96345 8.44556 2.01164 8.61155C2.05983 8.77755 2.14354 8.93109 2.25696 9.06152C2.37038 9.19196 2.5108 9.29617 2.6685 9.36695C2.8262 9.43772 2.9974 9.47337 3.17024 9.47141H6.54468Z" stroke="#83859C" stroke-width="0.894286" stroke-linecap="round" stroke-linejoin="round"/>
</g>
<defs>
<clipPath id="clip0_2547_644">
<rect width="14.3086" height="14.3086" fill="white" transform="translate(0.582764 0.528557)"/>
</clipPath>
</defs>
</svg>
